<?xml version="1.0" encoding="UTF-8"?>
<!-- Generator: https://ezgif.com/png-to-svg -->
<svg version="1.1" xmlns="http://www.w3.org/2000/svg" width="1254" height="1254">
<path d="M0 0 C10.81 9.12 19.05 23.24 20.68 37.46 C20.81 40.17 20.84 42.85 20.81 45.56 C20.8 47 20.8 47 20.79 48.47 C20.36 66.98 12.64 80.77 -0.41 93.56 C-2.9 95.82 -4.9 97.57 -8.14 98.67 C-11.51 99.96 -13.27 101.04 -15.62 103.81 C-17.4 110.45 -16.55 117.71 -16.25 124.5 C-16.2 126.42 -16.15 128.34 -16.11 130.27 C-16.02 134.49 -15.87 138.71 -15.69 142.94 C-15.63 144.56 -15.62 146.19 -15.62 147.81 C-15.3 148.47 -14.96 149.13 -14.62 149.81 C-13.35 149.82 -13.35 149.82 -12.05 149.84 C-3.92 149.92 4.22 150 12.35 150.1 C16.52 150.15 20.7 150.2 24.88 150.23 C43.45 150.41 61.91 150.64 80.38 152.81 C81.54 152.95 82.7 153.08 83.89 153.22 C86.59 153.57 89.26 153.98 91.94 154.44 C92.9 154.6 93.87 154.77 94.86 154.94 C122.36 159.94 149.71 168.38 174.35 181.72 C176.62 182.95 178.91 184.14 181.19 185.33 C192.57 191.35 203.06 198.12 213.38 205.81 C214.08 206.33 214.79 206.85 215.52 207.38 C226.17 215.18 235.93 223.6 245.38 232.81 C245.93 233.34 246.48 233.87 247.04 234.42 C254.02 241.14 260.44 248.14 266.38 255.81 C266.83 256.39 267.28 256.97 267.75 257.56 C275.81 267.84 282.8 278.54 289.38 289.81 C289.78 290.5 290.18 291.18 290.6 291.89 C307 319.86 318.86 350.68 324.6 382.63 C324.78 383.54 324.96 384.45 325.14 385.39 C325.35 386.6 325.35 386.6 325.57 387.84 C326.22 389.96 326.22 389.96 328.22 391.06 C330.86 391.98 333.44 392.19 336.21 392.39 C360.04 394.16 380.15 404.74 395.84 422.62 C414.33 445.91 417.9 472.69 417.71 501.56 C417.69 505.34 417.69 509.13 417.7 512.92 C417.66 546.97 416.31 579.87 391.69 606.06 C375.51 621.51 353.66 630.07 331.38 629.75 C330.47 629.72 329.56 629.69 328.62 629.65 C326.17 629.58 326.17 629.58 324.38 631.81 C323.71 633.62 323.71 633.62 323.22 635.72 C323.01 636.53 322.79 637.35 322.58 638.18 C322.23 639.52 322.23 639.52 321.88 640.88 C310.55 682.11 288.42 718.56 258.42 748.8 C247.45 760.02 244.53 771.08 243.94 786.39 C243.89 787.62 243.89 787.62 243.84 788.87 C243.76 790.63 243.69 792.39 243.62 794.16 C243.51 796.96 243.39 799.76 243.26 802.56 C242.92 810.53 242.58 818.49 242.26 826.45 C242.06 831.34 241.85 836.22 241.63 841.11 C241.55 842.96 241.47 844.8 241.4 846.65 C240.13 879.63 240.13 879.63 229.19 891.62 C222.13 898.13 213.19 901.31 203.75 902.12 C190.42 901.56 179.33 896.39 167.38 890.96 C160.73 887.94 154.01 885.11 147.26 882.31 C136.6 877.88 125.99 873.35 115.43 868.69 C104.42 863.84 93.39 859.06 82.26 854.48 C80.91 853.92 79.55 853.36 78.2 852.79 C76.31 852 74.42 851.23 72.52 850.46 C71.45 850.02 70.38 849.58 69.28 849.12 C57.1 844.8 45.66 844.38 32.89 844.41 C30.95 844.41 29.02 844.4 27.08 844.39 C22.93 844.38 18.78 844.37 14.63 844.37 C8.05 844.37 1.47 844.35 -5.11 844.33 C-17.91 844.29 -30.71 844.27 -43.51 844.25 C-59.76 844.23 -76.02 844.2 -92.28 844.15 C-98.8 844.13 -105.32 844.12 -111.84 844.12 C-115.92 844.11 -120.01 844.1 -124.09 844.09 C-125.96 844.09 -127.83 844.09 -129.7 844.09 C-147.37 844.11 -165.09 843.15 -182.44 839.62 C-183.51 839.41 -184.58 839.2 -185.69 838.98 C-211.58 833.65 -236.81 825.3 -260.62 813.81 C-261.56 813.36 -262.49 812.91 -263.45 812.45 C-288.67 800.13 -311.96 784.83 -332.62 765.81 C-333.95 764.64 -335.29 763.47 -336.62 762.31 C-337.27 761.75 -337.91 761.19 -338.57 760.61 C-340.04 759.32 -341.51 758.04 -342.99 756.77 C-352.92 748.04 -361.43 738.16 -369.62 727.81 C-370.32 726.95 -371.01 726.08 -371.73 725.19 C-392.26 698.83 -405.71 668.9 -415.79 637.28 C-416.65 634.75 -417.61 632.28 -418.62 629.81 C-420.28 629.77 -420.28 629.77 -421.96 629.73 C-444.48 628.99 -462.91 623.07 -480.62 608.81 C-481.33 608.27 -482.03 607.73 -482.76 607.18 C-500.02 593.2 -508.16 571.26 -510.62 549.81 C-510.9 544.4 -510.91 538.99 -510.89 533.57 C-510.89 532.04 -510.89 530.5 -510.9 528.97 C-510.9 525.77 -510.9 522.57 -510.89 519.38 C-510.87 515.33 -510.88 511.28 -510.89 507.22 C-510.9 504.06 -510.9 500.89 -510.89 497.73 C-510.89 496.24 -510.89 494.75 -510.9 493.26 C-510.96 466.68 -505.63 442.94 -488.62 421.81 C-487.96 420.97 -487.29 420.13 -486.61 419.26 C-471.44 401.19 -450.4 393.68 -427.46 391.35 C-424.51 391.11 -421.58 390.92 -418.62 390.81 C-416.33 384.29 -414.54 377.71 -412.88 371 C-397.53 311 -361.01 252.62 -311.62 214.81 C-310.65 214.03 -309.67 213.25 -308.66 212.44 C-290.61 198.07 -270.41 186.72 -249.62 176.81 C-249.02 176.52 -248.41 176.23 -247.79 175.93 C-209.44 157.77 -167 149.75 -124.75 149.64 C-121.54 149.63 -118.34 149.61 -115.14 149.58 C-109.21 149.54 -103.28 149.5 -97.35 149.49 C-93.19 149.48 -89.03 149.45 -84.87 149.41 C-83.29 149.39 -81.72 149.39 -80.14 149.39 C-77.95 149.39 -75.75 149.37 -73.56 149.34 C-72.31 149.34 -71.07 149.33 -69.78 149.32 C-66.03 148.72 -64.83 147.87 -62.62 144.81 C-61.99 142.83 -61.99 142.83 -62 140.71 C-61.96 139.91 -61.93 139.11 -61.89 138.29 C-61.88 137.43 -61.86 136.58 -61.85 135.7 C-61.83 134.81 -61.81 133.92 -61.79 133.01 C-61.75 131.13 -61.73 129.26 -61.72 127.38 C-61.69 124.52 -61.58 121.67 -61.46 118.81 C-60.97 109.28 -60.97 109.28 -64.96 101.11 C-67.78 99.33 -70.53 98.05 -73.62 96.81 C-85.13 88.07 -92.28 77.54 -96.62 63.81 C-96.99 62.66 -96.99 62.66 -97.37 61.48 C-101.5 46.13 -97.95 29.8 -90.64 16.07 C-87.53 11.05 -83.86 6.92 -79.62 2.81 C-78.99 2.17 -78.35 1.52 -77.7 0.86 C-55.74 -20.05 -22.72 -17.56 0 0 Z " fill="#01B5FA" transform="translate(664.625,161.1875)"/>
<path d="M0 0 C2.14 -0 4.28 -0.01 6.42 -0.01 C12.21 -0.02 18 -0.02 23.79 -0.01 C29.87 -0 35.95 -0.01 42.04 -0.01 C52.25 -0.02 62.46 -0.01 72.68 -0 C84.45 0.01 96.22 0.01 108 -0.01 C118.14 -0.01 128.27 -0.02 138.41 -0.01 C144.46 -0.01 150.5 -0.01 156.54 -0.01 C162.23 -0.02 167.91 -0.02 173.6 -0 C175.68 -0 177.75 -0 179.82 -0.01 C194.73 -0.04 209.61 0.29 224.09 4.2 C225.07 4.46 225.07 4.46 226.07 4.73 C227.96 5.23 229.83 5.75 231.71 6.26 C232.7 6.49 233.68 6.73 234.7 6.97 C242.17 8.8 248.82 11.88 255.71 15.26 C256.99 15.86 258.26 16.47 259.53 17.08 C278.51 26.2 294.41 37.83 309.71 52.26 C310.51 53 311.3 53.74 312.12 54.5 C330.75 72.41 344.76 96.85 352.71 121.26 C353.2 122.53 353.69 123.8 354.18 125.08 C355.85 129.48 357.07 133.95 358.21 138.51 C358.51 139.63 358.51 139.63 358.82 140.78 C362.99 157.3 364.17 173.77 364.11 190.75 C364.11 192.75 364.12 194.75 364.12 196.75 C364.12 200.91 364.12 205.08 364.1 209.24 C364.09 214.5 364.1 219.77 364.11 225.03 C364.12 229.15 364.12 233.28 364.11 237.4 C364.11 239.34 364.11 241.28 364.12 243.22 C364.18 264.07 361.9 284.3 355.71 304.26 C355.34 305.47 355.34 305.47 354.96 306.7 C346.65 333.23 332.52 359.59 312.12 378.89 C310.54 380.37 310.54 380.37 308.77 382.76 C306.9 385.03 305.11 386.6 302.84 388.45 C297.66 392.95 293.23 398.01 292.37 405.05 C292.41 414.18 293.77 422.88 295.46 431.82 C295.74 433.33 296.01 434.83 296.28 436.34 C297.93 445.34 299.64 454.33 301.59 463.26 C302.74 468.65 303.76 473.83 301.52 479.01 C298.79 482.41 296.4 484.05 292.03 484.59 C287.58 484.14 284.69 482.35 280.9 480.07 C279.3 479.15 277.7 478.23 276.09 477.31 C275.23 476.82 274.37 476.32 273.48 475.81 C268.48 473.01 263.37 470.39 258.27 467.76 C256.13 466.65 253.98 465.54 251.83 464.43 C250.8 463.89 249.76 463.36 248.69 462.8 C244.4 460.58 240.12 458.33 235.84 456.07 C235.09 455.68 234.34 455.28 233.56 454.87 C229.54 452.76 225.53 450.63 221.53 448.49 C220.24 447.8 220.24 447.8 218.93 447.11 C217.29 446.23 215.66 445.36 214.03 444.48 C213.29 444.09 212.55 443.69 211.79 443.29 C211.14 442.95 210.5 442.6 209.84 442.25 C204.05 439.56 199.16 438.97 192.88 439.01 C192.01 439 191.13 439 190.22 439 C187.29 438.99 184.35 439 181.42 439 C179.31 439 177.2 439 175.09 438.99 C170.55 438.98 166.01 438.98 161.47 438.98 C154.27 438.99 147.06 438.97 139.86 438.96 C119.38 438.91 98.89 438.88 78.41 438.88 C67.1 438.87 55.78 438.86 44.47 438.82 C38.49 438.81 32.52 438.8 26.54 438.81 C-9.32 438.86 -43.51 437.95 -76.49 422.12 C-78.19 421.3 -79.92 420.53 -81.65 419.75 C-124.91 399.54 -158.7 361.27 -175.41 316.82 C-176.05 314.97 -176.67 313.12 -177.29 311.26 C-177.69 310.12 -178.09 308.97 -178.5 307.8 C-181.14 300.04 -183.04 292.25 -184.54 284.2 C-184.78 282.91 -184.78 282.91 -185.03 281.59 C-187.48 267.64 -187.47 253.45 -187.53 239.33 C-187.53 238.45 -187.53 237.57 -187.54 236.66 C-187.56 232 -187.57 227.33 -187.58 222.67 C-187.59 218.87 -187.61 215.08 -187.64 211.28 C-187.92 178.08 -186.73 144.9 -172.29 114.26 C-171.58 112.67 -170.88 111.09 -170.17 109.5 C-164.64 97.24 -158.18 86.15 -150.29 75.26 C-149.85 74.65 -149.42 74.04 -148.97 73.41 C-137.93 58.05 -123.95 43.9 -108.29 33.26 C-107.61 32.79 -106.94 32.33 -106.24 31.85 C-84.66 17.12 -61.31 7.75 -35.74 2.74 C-34.15 2.43 -32.55 2.1 -30.97 1.74 C-20.7 -0.3 -10.42 -0.02 0 0 Z " fill="#001337" transform="translate(530.287841796875,450.7412109375)"/>
<path d="M0 0 C0.99 0.99 0.99 0.99 2 2 C1.66 2.53 1.32 3.06 0.98 3.61 C0.53 4.32 0.08 5.02 -0.38 5.75 C-1.04 6.79 -1.04 6.79 -1.71 7.86 C-4.64 12.73 -6.23 17.7 -7.9 23.12 C-8.97 25.91 -10.18 27.68 -12 30 C-16.34 38.97 -19.71 49.3 -22 59 C-22.46 60.58 -22.46 60.58 -22.94 62.19 C-23.93 65.74 -24.73 69.28 -25.5 72.89 C-26 75 -26 75 -27.06 77.88 C-28.21 81.71 -28.42 85.4 -28.71 89.38 C-29.05 92.45 -29.97 95.11 -31 98 C-31 98.83 -31 99.65 -31 100.5 C-31 103 -31 103 -32 105.67 C-33.34 110.13 -33.13 114.25 -33.01 118.87 C-32.98 120.58 -32.99 122.29 -33 124 C-33.33 124.33 -33.66 124.66 -34 125 C-34.09 127.52 -34.12 130.01 -34.1 132.54 C-34.1 133.29 -34.09 134.04 -34.09 134.82 C-34.09 137.23 -34.08 139.65 -34.06 142.06 C-34.06 143.7 -34.05 145.33 -34.05 146.96 C-34.04 150.98 -34.02 154.99 -34 159 C-33.34 159.33 -32.68 159.66 -32 160 C-31.88 167.75 -31.88 167.75 -33 170 C-33.07 171.41 -33.08 172.83 -33.06 174.25 C-33.05 175.5 -33.05 175.5 -33.04 176.78 C-33.01 178.55 -32.99 180.31 -32.96 182.08 C-32.95 183.34 -32.95 183.34 -32.94 184.62 C-32.93 185.39 -32.91 186.16 -32.9 186.95 C-33 189 -33 189 -34 192 C-34.07 194.04 -34.08 196.09 -34.06 198.13 C-34.05 199.4 -34.05 200.67 -34.04 201.97 C-34.03 202.65 -34.02 203.32 -34.02 204.02 C-33.91 216.86 -34.08 229.67 -34.5 242.5 C-34.52 243.23 -34.55 243.97 -34.57 244.72 C-34.71 248.81 -34.85 252.91 -35 257 C-34.34 257.33 -33.68 257.66 -33 258 C-33.16 258.56 -33.32 259.12 -33.49 259.7 C-34.03 262.14 -34.13 264.31 -34.13 266.81 C-34.13 267.72 -34.14 268.63 -34.14 269.57 C-34.13 270.52 -34.13 271.46 -34.12 272.44 C-34.13 273.38 -34.13 274.32 -34.14 275.29 C-34.14 276.2 -34.13 277.12 -34.13 278.06 C-34.13 279.3 -34.13 279.3 -34.13 280.57 C-33.99 283.13 -33.54 285.49 -33 288 C-32.62 291.37 -32.24 294.74 -31.93 298.12 C-31.43 302.53 -30.32 305.28 -28 309 C-27.52 311.86 -27.52 311.86 -27.38 314.75 C-27.47 318.19 -27.47 318.19 -26 321 C-25.88 322.03 -25.75 323.06 -25.62 324.12 C-25.08 327.53 -24.16 330.02 -22.78 333.13 C-21.55 336.08 -20.75 339.13 -19.88 342.19 C-16.65 353.03 -12.3 364.55 -6 374 C-6 374.99 -6 375.98 -6 377 C-5.01 377 -4.02 377 -3 377 C-2.67 378.32 -2.34 379.64 -2 381 C-1.34 381 -0.68 381 0 381 C0.12 381.76 0.25 382.53 0.38 383.31 C0.88 386.2 0.88 386.2 3 389 C3 389.99 3 390.98 3 392 C3.99 392.33 4.98 392.66 6 393 C8.08 395.96 9.13 398.53 10 402 C10.66 402.33 11.32 402.66 12 403 C12 403.66 12 404.32 12 405 C12.66 405 13.32 405 14 405 C15.4 406.96 16.72 408.97 18 411 C18.74 412.07 19.49 413.14 20.25 414.25 C22 417 22 417 22 419 C22.66 419 23.32 419 24 419 C24 419.99 24 420.98 24 422 C24.99 422 25.98 422 27 422 C28.5 423.46 28.5 423.46 30 425.38 C31.97 427.86 33.29 429.2 36 431 C36 431.66 36 432.32 36 433 C36.66 433 37.32 433 38 433 C39.38 434.63 40.72 436.29 42 438 C42.66 437.67 43.32 437.34 44 437 C44.99 440.47 44.99 440.47 46 444 C46.66 444 47.32 444 48 444 C48 444.66 48 445.32 48 446 C48.84 446.09 48.84 446.09 49.69 446.19 C52.99 447.35 54.72 449.4 57 452 C57 452.66 57 453.32 57 454 C57.57 454.11 58.14 454.23 58.73 454.35 C61.21 455.06 63.06 456.07 65.25 457.44 C65.96 457.87 66.66 458.3 67.39 458.75 C67.92 459.16 68.45 459.57 69 460 C69 460.66 69 461.32 69 462 C69.62 462.29 70.24 462.58 70.88 462.88 C73 464 73 464 75 466 C76.65 466.71 78.32 467.38 80 468 C80 468.99 80 469.98 80 471 C80.99 471 81.98 471 83 471 C83.33 471.66 83.66 472.32 84 473 C84.99 473.33 85.98 473.66 87 474 C87.33 474.66 87.66 475.32 88 476 C89.57 476.87 91.19 477.67 92.81 478.44 C96.16 480.01 99.2 481.55 102 484 C102 484.66 102 485.32 102 486 C102.68 486.1 103.36 486.21 104.06 486.31 C107.6 487.14 110.69 488.52 114 490 C114.95 490.35 115.9 490.7 116.88 491.06 C119 492 119 492 120 494 C122.12 494.92 124.27 495.77 126.44 496.56 C132.92 498.96 132.92 498.96 135 500 C135 500.66 135 501.32 135 502 C136.92 502.37 136.92 502.37 138.88 502.75 C143.31 503.73 147.34 505.24 151.52 506.99 C154.59 508.24 157.71 509.27 160.86 510.28 C162.9 510.97 164.88 511.75 166.88 512.56 C170.95 514.13 175.07 514.75 179.37 515.46 C182.88 516.18 185.79 517.43 189 519 C189 519.66 189 520.32 189 521 C189.55 520.82 190.11 520.65 190.68 520.47 C193.37 519.93 195.42 520.14 198.13 520.52 C199.59 520.72 199.59 520.72 201.07 520.93 C202.58 521.15 202.58 521.15 204.12 521.38 C205.14 521.51 206.15 521.65 207.2 521.8 C214.72 522.86 214.72 522.86 217 524 C218.72 524.14 220.44 524.23 222.16 524.28 C223.69 524.34 223.69 524.34 225.25 524.39 C226.86 524.45 226.86 524.45 228.5 524.5 C230.61 524.57 232.73 524.64 234.84 524.72 C236.25 524.76 236.25 524.76 237.69 524.81 C240 525 240 525 242 526 C243.71 525.91 245.42 525.76 247.12 525.56 C248.04 525.46 248.95 525.36 249.88 525.25 C250.58 525.17 251.28 525.09 252 525 C252 525.66 252 526.32 252 527 C253.05 526.67 254.1 526.34 255.19 526 C258.39 525.16 260.74 524.8 264 525 C264 525.66 264 526.32 264 527 C265.18 526.68 266.36 526.35 267.58 526.02 C274.26 524.54 280.96 524.73 287.78 524.76 C289.25 524.76 290.73 524.75 292.21 524.75 C296.19 524.75 300.18 524.75 304.17 524.76 C308.35 524.77 312.52 524.77 316.7 524.77 C323.7 524.77 330.71 524.78 337.71 524.79 C345.82 524.81 353.92 524.82 362.03 524.81 C369.83 524.81 377.63 524.82 385.43 524.83 C388.75 524.83 392.07 524.83 395.39 524.83 C399.29 524.83 403.19 524.84 407.09 524.85 C408.53 524.85 409.96 524.85 411.4 524.85 C413.35 524.85 415.3 524.86 417.25 524.87 C418.34 524.87 419.43 524.87 420.56 524.87 C423 525 423 525 424 526 C426.14 526.19 428.29 526.32 430.44 526.44 C439.14 527.01 446.21 528.03 454 532 C457.64 533.11 461.31 534.07 465 535 C465 535.66 465 536.32 465 537 C465.56 537.13 466.12 537.27 466.7 537.4 C469.09 538.02 471.41 538.77 473.75 539.56 C474.55 539.83 475.35 540.1 476.17 540.38 C477.08 540.69 477.08 540.69 478 541 C478 541.66 478 542.32 478 543 C478.7 543.13 479.41 543.26 480.13 543.39 C488.01 545.07 495.14 547.83 502 552 C506.26 553.94 510.53 555.58 515 557 C515 557.66 515 558.32 515 559 C516.31 559.16 516.31 559.16 517.64 559.32 C521.15 560.03 523.61 561.17 526.75 562.88 C531.41 565.3 535.85 566.99 540.9 568.36 C543.55 569.17 545.63 570.58 548 572 C550.43 572.79 552.89 573.48 555.35 574.17 C559.39 575.44 563.18 577.18 567 579 C567 579.66 567 580.32 567 581 C567.57 580.81 568.14 580.63 568.73 580.44 C571.32 579.94 572.74 580.28 575.25 581 C583.14 582.92 589.39 581 596.38 577.12 C601.58 573.14 604.84 568.15 607 562 C607.58 557.21 607.32 552.43 607.11 547.62 C606.91 542.6 607.66 537.93 608.56 532.99 C609.16 528.89 609.08 524.89 609 520.76 C609 518.31 609.17 516.04 609.5 513.62 C611.04 503.05 611.04 503.05 609 493 C610.14 489.29 611.17 487.83 614 485 C614.33 491.27 614.66 497.54 615 504 C615.66 504.33 616.32 504.66 617 505 C617.31 507.55 617.51 510 617.62 512.56 C617.68 513.63 617.68 513.63 617.74 514.72 C617.84 516.48 617.92 518.24 618 520 C618.66 520 619.32 520 620 520 C620.74 568.64 620.74 568.64 607.81 582.81 C600.75 589.32 591.82 592.5 582.38 593.31 C569.05 592.75 557.96 587.58 546.01 582.15 C539.35 579.13 532.63 576.29 525.88 573.49 C515.22 569.07 504.61 564.54 494.06 559.88 C483.05 555.02 472.01 550.25 460.88 545.67 C459.53 545.11 458.18 544.55 456.82 543.98 C454.94 543.19 453.04 542.42 451.14 541.64 C450.08 541.2 449.01 540.76 447.91 540.31 C435.73 535.99 424.28 535.56 411.51 535.6 C409.58 535.59 407.64 535.59 405.7 535.58 C401.56 535.56 397.41 535.56 393.26 535.56 C386.68 535.56 380.1 535.54 373.52 535.52 C360.72 535.48 347.92 535.46 335.12 535.44 C318.86 535.42 302.61 535.39 286.35 535.34 C279.83 535.32 273.31 535.31 266.79 535.3 C262.7 535.3 258.62 535.29 254.53 535.28 C252.66 535.27 250.79 535.27 248.92 535.28 C231.25 535.3 213.54 534.34 196.19 530.81 C195.11 530.6 194.04 530.39 192.93 530.17 C167.05 524.83 141.81 516.49 118 505 C117.07 504.55 116.14 504.1 115.18 503.64 C89.96 491.32 66.66 476.02 46 457 C44.67 455.83 43.34 454.66 42 453.5 C41.36 452.94 40.72 452.38 40.05 451.8 C38.58 450.51 37.11 449.23 35.63 447.95 C25.7 439.23 17.19 429.35 9 419 C8.31 418.14 7.61 417.27 6.89 416.38 C-13.63 390.02 -27.08 360.09 -37.17 328.47 C-38.02 325.94 -38.99 323.47 -40 321 C-41.1 320.97 -42.2 320.95 -43.34 320.92 C-65.86 320.18 -84.28 314.26 -102 300 C-102.7 299.46 -103.41 298.92 -104.13 298.36 C-117 287.94 -127.38 270.39 -130 254 C-129.92 245.54 -127.72 237.38 -125.56 229.25 C-125.36 228.48 -125.15 227.7 -124.94 226.9 C-123.36 221.32 -121.22 218.97 -116.94 215.38 C-113.86 212.74 -110.79 210.11 -107.75 207.44 C-106.92 206.71 -106.09 205.99 -105.23 205.25 C-102.97 202.97 -101.63 200.74 -100 198 C-98.06 196.09 -98.06 196.09 -96 194.38 C-93.09 191.94 -93.09 191.94 -90.38 189.29 C-89 188 -89 188 -87 188 C-87 187.34 -87 186.68 -87 186 C-86.26 185.32 -85.51 184.64 -84.75 183.94 C-78.3 177.61 -76.96 168.31 -74.95 159.84 C-73.86 155.45 -72.52 151.26 -71 147 C-70.34 147 -69.68 147 -69 147 C-68.9 146.18 -68.8 145.36 -68.7 144.51 C-67.84 138.04 -66.63 132.39 -64.01 126.42 C-62.62 123.1 -61.67 119.69 -60.71 116.23 C-60 114.01 -59.1 112.05 -58 110 C-57.34 110 -56.68 110 -56 110 C-55.88 108.91 -55.75 107.81 -55.62 106.69 C-55 103 -55 103 -53 100 C-51.68 100 -50.36 100 -49 100 C-48.5 98.51 -48.5 98.51 -48 97 C-47.34 97 -46.68 97 -46 97 C-46 96.01 -46 95.02 -46 94 C-45.01 94 -44.02 94 -43 94 C-43.23 97.19 -43.46 100.38 -43.68 103.57 C-43.73 104.24 -43.78 104.91 -43.83 105.6 C-43.96 107.41 -44.1 109.22 -44.25 111.03 C-44.88 119.15 -45.14 127.2 -45.11 135.34 C-45.11 136.59 -45.11 137.84 -45.11 139.13 C-45.11 142.51 -45.11 145.89 -45.1 149.27 C-45.1 152.82 -45.09 156.37 -45.09 159.92 C-45.09 166.62 -45.08 173.32 -45.07 180.02 C-45.06 187.65 -45.06 195.29 -45.05 202.93 C-45.04 218.62 -45.02 234.31 -45 250 C-44 247 -43.99 245.93 -44.42 242.92 C-45.04 238.02 -45.22 233.19 -45.25 228.25 C-45.27 227.43 -45.29 226.6 -45.31 225.75 C-45.34 221.01 -45.11 217.84 -42 214 C-41.34 213.67 -40.68 213.34 -40 213 C-39.67 214.98 -39.34 216.96 -39 219 C-37.7 217.93 -37.7 217.93 -37.89 215.41 C-37.89 214.28 -37.9 213.16 -37.9 212 C-37.91 210.78 -37.91 209.57 -37.91 208.31 C-37.92 207.04 -37.93 205.76 -37.94 204.44 C-37.94 203.15 -37.95 201.87 -37.95 200.55 C-37.96 197.37 -37.98 194.18 -38 191 C-38.66 190.67 -39.32 190.34 -40 190 C-41.53 184.24 -40.81 179.62 -39 174 C-37.93 166.39 -37.76 158.8 -37.56 151.12 C-36.01 98.6 -36.01 98.6 -32 85 C-32.66 85 -33.32 85 -34 85 C-33.61 81.75 -32.88 79.81 -31.15 76.98 C-28.46 72.39 -27.23 67.49 -25.88 62.38 C-25.37 60.53 -24.87 58.68 -24.37 56.84 C-24.13 55.98 -23.9 55.13 -23.66 54.25 C-22.93 51.76 -21.99 49.4 -21 47 C-20.62 44.67 -20.28 42.34 -20 40 C-19.34 40 -18.68 40 -18 40 C-18.41 38.95 -18.82 37.9 -19.25 36.81 C-20 33 -20 33 -18.31 30.06 C-16 28 -16 28 -13 28 C-12.72 27.29 -12.43 26.58 -12.14 25.85 C-11.76 24.91 -11.39 23.97 -11 23 C-10.64 22.1 -10.29 21.2 -9.92 20.27 C-7.07 13.23 -3.78 6.6 0 0 Z " fill="#0077FC" transform="translate(286,470)"/>
<path d="M0 0 C0.87 0.33 1.73 0.66 2.62 1 C8.38 2.67 17.56 3.72 23 1 C23.33 1.66 23.66 2.32 24 3 C27.94 3.98 31.11 4.22 35 3 C35.33 2.34 35.66 1.68 36 1 C39 2 39 2 41 5 C45.84 7.29 50.83 7.36 56.08 7.71 C59.61 8.06 62.64 8.9 66 10 C66.66 10 67.32 10 68 10 C68 10.66 68 11.32 68 12 C68.93 12.25 69.86 12.5 70.81 12.75 C74.25 14.1 74.96 15.09 77 18 C77.99 18 78.98 18 80 18 C80 17.34 80 16.68 80 16 C81.44 16.28 82.88 16.58 84.31 16.88 C85.11 17.04 85.91 17.2 86.74 17.37 C89 18 89 18 92 20 C92 21.32 92 22.64 92 24 C92.66 24 93.32 24 94 24 C94.33 25.32 94.66 26.64 95 28 C99.65 27.52 99.65 27.52 104 26 C104 27.32 104 28.64 104 30 C104.99 30.33 105.98 30.66 107 31 C107.33 33.31 107.66 35.62 108 38 C110.39 37.42 112.67 36.78 115 36 C115 36.66 115 37.32 115 38 C115.99 38 116.98 38 118 38 C118.81 39.6 119.63 41.21 120.44 42.81 C121.12 44.15 121.12 44.15 121.81 45.52 C123 48 123 48 124 51 C125.33 51.09 125.33 51.09 126.69 51.19 C130.8 52.2 132.24 53.86 135 57 C135.6 57.6 136.2 58.2 136.81 58.81 C137.2 59.2 137.6 59.6 138 60 C138.66 59.34 139.32 58.68 140 58 C140.99 58.33 141.98 58.66 143 59 C143.88 60.78 143.88 60.78 144.56 62.94 C145.46 65.73 145.88 66.88 148 69 C148.66 68.67 149.32 68.34 150 68 C150.66 68.33 151.32 68.66 152 69 C152 69.99 152 70.98 152 72 C152.66 72 153.32 72 154 72 C154.1 72.78 154.21 73.57 154.31 74.38 C154.78 77.33 154.78 77.33 158 79 C158.99 79.66 159.98 80.32 161 81 C161 81.66 161 82.32 161 83 C161.99 83.33 162.98 83.66 164 84 C165.19 87.06 165.19 87.06 166 90 C166.66 90 167.32 90 168 90 C167.66 91.27 167.66 91.27 167.31 92.56 C166.94 96.71 167.68 99.6 170 103 C171.14 103.89 172.31 104.74 173.5 105.56 C178.93 109.78 179.03 116.6 180 123 C180.18 123.86 180.37 124.73 180.55 125.62 C181.02 128.11 181.14 130.48 181.25 133 C181.72 138.85 183.62 143.7 185.94 149.05 C186.99 151.98 187.04 153.94 187 157 C187.66 157.99 188.32 158.98 189 160 C189.59 163.74 189.95 167.48 190.34 171.24 C190.79 174.97 190.79 174.97 192.52 177.83 C194.17 181.37 194.36 183.65 194.33 187.54 C194.32 188.76 194.32 189.98 194.31 191.24 C194.29 192.5 194.27 193.76 194.25 195.06 C194.24 196.33 194.24 197.6 194.23 198.9 C194.18 205.33 194.02 211 191.94 217.12 C190.92 221.33 190.91 224.94 191 229.24 C191 231.74 190.82 234.09 190.5 236.56 C189.77 242.34 189.14 248.42 191 254 C190.98 255.94 190.98 255.94 190.75 258 C190.65 259.02 190.65 259.02 190.55 260.06 C190 262 190 262 188.46 263.28 C186.14 266.02 186.78 269.1 186.94 272.5 C187.1 278.49 186.73 283.9 185.34 289.77 C184.81 293.23 185.91 295.72 187 299 C186.32 299.76 185.64 300.53 184.94 301.31 C184.3 302.2 183.66 303.09 183 304 C183.31 304.91 183.62 305.82 183.94 306.75 C185.3 310.91 184.41 313.02 183.02 317.05 C182 319 182 319 179 321 C178.64 323.33 178.31 325.66 178 328 C177.05 330.02 176.05 332.03 175 334 C173.94 336.98 173.01 339.97 172.12 343 C171.1 345.73 169.87 347.81 168.2 350.18 C165.5 354.27 163.32 358.69 161 363 C159.81 365.18 158.6 367.35 157.38 369.52 C156.36 371.36 155.38 373.23 154.44 375.11 C150.03 383.51 144.69 390 138.02 396.76 C137.38 397.4 136.75 398.04 136.1 398.7 C135.53 399.26 134.95 399.83 134.36 400.41 C132.77 402.07 132.77 402.07 132 405 C131.01 405.33 130.02 405.66 129 406 C128.71 406.58 128.42 407.15 128.12 407.75 C126.32 411.37 123.34 413.97 120.15 416.42 C116.85 419.17 115.17 420.83 114.54 425.2 C114.47 427.5 114.42 429.8 114.38 432.1 C114 435 114 435 112.62 436.62 C110.94 437.62 110.94 437.62 108 439 C108 439.99 108 440.98 108 442 C107.01 442.33 106.02 442.66 105 443 C102.53 433.9 100.68 424.18 105.56 415.62 C108.58 411.24 112.09 407.58 116 404 C116.78 403.22 117.57 402.43 118.38 401.62 C119.86 400.14 121.35 398.68 122.89 397.25 C149.12 372.34 167.06 333.91 171.69 298.33 C171.92 296.56 172.2 294.8 172.48 293.04 C174.16 282.02 174.33 271.16 174.34 260.04 C174.34 258.03 174.35 256.02 174.36 254.02 C174.37 249.83 174.37 245.64 174.37 241.45 C174.37 237.21 174.38 232.96 174.41 228.72 C174.86 196.12 174.86 196.12 170 164 C169.55 162.06 169.11 160.12 168.66 158.18 C161.02 125.38 144.3 96.17 121 72 C120.35 71.3 119.7 70.59 119.03 69.87 C103.52 53.57 83.41 41.98 63 33 C62.19 32.6 61.38 32.21 60.54 31.8 C38.26 21 13.16 19.85 -11.08 19.82 C-13.21 19.82 -15.34 19.81 -17.47 19.8 C-24.45 19.78 -31.42 19.77 -38.39 19.76 C-40.8 19.76 -43.22 19.75 -45.63 19.75 C-56.97 19.73 -68.31 19.72 -79.66 19.71 C-92.69 19.7 -105.72 19.67 -118.76 19.63 C-128.87 19.6 -138.98 19.59 -149.1 19.58 C-155.12 19.58 -161.14 19.57 -167.16 19.55 C-172.84 19.52 -178.51 19.52 -184.19 19.53 C-186.26 19.53 -188.32 19.52 -190.38 19.51 C-208.71 19.39 -226.9 21.49 -244.44 27.06 C-245.82 27.49 -245.82 27.49 -247.22 27.93 C-259.48 31.91 -272.85 36.9 -283.47 44.32 C-286.53 46.35 -288.4 46.34 -292 46 C-292 44.35 -292 42.7 -292 41 C-291.34 40.81 -290.68 40.63 -290 40.44 C-286.3 38.67 -283.74 36.25 -280.77 33.46 C-279 32 -279 32 -277 32 C-277 31.01 -277 30.02 -277 29 C-275.36 27.61 -275.36 27.61 -273.19 26.31 C-272.13 25.66 -272.13 25.66 -271.04 24.99 C-269 24 -269 24 -266 24 C-265.67 23.01 -265.34 22.02 -265 21 C-262.88 19.97 -262.88 19.97 -260.12 19.06 C-259.14 18.72 -258.15 18.39 -257.13 18.04 C-256.1 17.7 -255.06 17.35 -254 17 C-252.02 16.32 -250.04 15.63 -248.06 14.94 C-246.75 14.49 -246.75 14.49 -245.41 14.03 C-242.95 13.1 -242.95 13.1 -240.95 11.42 C-237.81 9.13 -234.82 9.32 -231 9 C-231 8.01 -231 7.02 -231 6 C-228.03 6 -225.06 6 -222 6 C-222 6.33 -222 6.66 -222 7 C-218.28 7.2 -217.23 7.15 -214 5 C-212.92 5.56 -212.92 5.56 -211.81 6.12 C-208.47 7.16 -207.94 6.78 -204.94 5.25 C-203.62 4.51 -202.31 3.76 -201 3 C-199.67 2.33 -198.34 1.66 -197 1 C-197 1.66 -197 2.32 -197 3 C-194.69 3.66 -192.38 4.32 -190 5 C-189.34 4.34 -188.68 3.68 -188 3 C-186.19 3.38 -186.19 3.38 -184 4 C-183.2 4 -182.39 4 -181.56 4 C-179 4 -179 4 -176.69 4.5 C-171.36 5.49 -166.27 5.21 -161 4 C-157.59 4 -154.37 4.49 -151 5 C-151 5.99 -151 6.98 -151 8 C-150.46 7.81 -149.93 7.63 -149.38 7.44 C-147 7 -147 7 -143.88 7.56 C-142.93 7.71 -141.98 7.85 -141 8 C-140.34 7.34 -139.68 6.68 -139 6 C-139 6.66 -139 7.32 -139 8 C-138.24 7.83 -137.47 7.67 -136.69 7.5 C-134 7 -134 7 -131 7 C-131 7.66 -131 8.32 -131 9 C-128.65 9.05 -126.29 9.09 -123.94 9.12 C-122.63 9.15 -121.32 9.17 -119.96 9.2 C-116 9 -112.78 8.12 -109 7 C-106.99 7.63 -104.99 8.3 -103 9 C-98.27 9.36 -93.66 9.09 -88.96 8.48 C-82.02 7.67 -75.04 8.03 -68.06 8.21 C-61.81 8.3 -57.55 7.9 -52 5 C-48.76 3.93 -47.73 4.04 -44.12 4.56 C-36.8 5.52 -29.39 3.94 -22.22 2.41 C-19.5 1.91 -17.69 2.37 -15 3 C-9.35 4.2 -6.1 4.24 -1 1 C-0.67 0.67 -0.34 0.34 0 0 Z " fill="#0DF3FA" transform="translate(719,432)"/>
<path d="M0 0 C9.24 6.42 15.27 15.1 18 26 C18.56 31.49 18.56 36.93 18.53 42.44 C18.53 44.01 18.54 45.58 18.54 47.15 C18.55 50.43 18.54 53.71 18.52 56.99 C18.5 61.16 18.51 65.33 18.54 69.5 C18.55 72.74 18.55 75.99 18.54 79.23 C18.53 80.76 18.54 82.3 18.55 83.84 C18.61 97.83 16.12 108.62 6.15 118.91 C-2.28 126.82 -9.7 128.62 -21.05 128.47 C-31.38 128.07 -37.18 124.58 -44.7 117.52 C-50.81 110.84 -54.14 104.38 -54.21 95.44 C-54.22 94.66 -54.23 93.87 -54.24 93.07 C-54.27 90.48 -54.29 87.88 -54.31 85.29 C-54.32 84.4 -54.32 83.51 -54.33 82.6 C-54.36 77.89 -54.39 73.18 -54.41 68.47 C-54.42 64.59 -54.46 60.71 -54.51 56.83 C-54.57 52.13 -54.6 47.44 -54.61 42.74 C-54.62 40.96 -54.64 39.18 -54.66 37.39 C-54.86 24.67 -53.55 14.96 -44.69 5.06 C-31.91 -6.5 -14.99 -8.51 0 0 Z " fill="#02F3FA" transform="translate(759,589)"/>
<path d="M0 0 C7.83 5.22 13.04 13.12 16 22 C16.21 24.58 16.31 27.05 16.32 29.63 C16.34 30.76 16.34 30.76 16.35 31.91 C16.38 34.39 16.4 36.87 16.41 39.35 C16.41 40.63 16.41 40.63 16.42 41.93 C16.45 46.44 16.47 50.96 16.48 55.47 C16.49 60.1 16.54 64.74 16.6 69.37 C16.63 72.96 16.64 76.55 16.65 80.13 C16.65 81.84 16.67 83.55 16.7 85.25 C16.89 98.82 14.52 109.09 4.84 119.32 C-3.41 126.84 -12.74 129.65 -23.79 129.34 C-33.42 128.31 -41.38 123.12 -47.79 116.02 C-53.02 109.37 -55.46 103.39 -55.4 94.91 C-55.41 94.14 -55.42 93.36 -55.42 92.56 C-55.44 90.01 -55.44 87.46 -55.43 84.91 C-55.44 83.13 -55.44 81.35 -55.45 79.56 C-55.46 75.83 -55.46 72.09 -55.45 68.36 C-55.43 63.59 -55.45 58.83 -55.48 54.06 C-55.5 50.38 -55.5 46.69 -55.5 43.01 C-55.5 41.25 -55.5 39.49 -55.51 37.74 C-55.62 20.23 -55.62 20.23 -51 13 C-50.53 12.2 -50.06 11.4 -49.58 10.58 C-37.53 -5.48 -17.76 -10.31 0 0 Z " fill="#00ECFC" transform="translate(519,589)"/>
<path d="M0 0 C0.33 0 0.66 0 1 0 C1 0.97 1 0.97 1.01 1.96 C1.09 17.78 1.18 33.6 1.29 49.42 C1.34 57.07 1.38 64.73 1.42 72.38 C1.46 79.06 1.5 85.73 1.54 92.41 C1.57 95.94 1.59 99.47 1.6 103 C1.67 118.45 2.04 133.66 4 149 C4.23 150.8 4.23 150.8 4.47 152.64 C4.83 155.35 5.22 158.05 5.62 160.75 C5.76 161.66 5.89 162.57 6.03 163.51 C6.35 165.68 6.67 167.84 7 170 C-14.02 170.95 -33.31 166.43 -50 153 C-50.25 151.96 -50.25 151.96 -50.51 150.91 C-50.75 149.96 -50.75 149.96 -51 149 C-51.99 148.67 -52.98 148.34 -54 148 C-55.45 145.36 -56.73 142.73 -58 140 C-59.02 137.98 -60.04 135.96 -61.06 133.94 C-62.04 131.96 -63.02 129.98 -64 128 C-64.34 127.34 -64.67 126.67 -65.02 125.99 C-67.1 121.59 -68.47 116.89 -68 112 C-65.88 109.44 -65.88 109.44 -63 108 C-60.19 107.75 -60.19 107.75 -58 108 C-57.94 107.4 -57.88 106.8 -57.81 106.19 C-56.66 103.08 -54.9 102.51 -52 101 C-51.11 100.44 -50.23 99.89 -49.31 99.31 C-47 98 -47 98 -45 98 C-44.96 97.17 -44.92 96.35 -44.88 95.5 C-43.86 91.42 -42.15 89.28 -39.47 86.12 C-37.68 83.53 -36.95 81 -36 78 C-35.06 75.98 -34.08 73.98 -33.06 72 C-32.56 71.01 -32.05 70.02 -31.54 69 C-31.03 68.01 -30.52 67.02 -30 66 C-29.5 64.94 -29.01 63.87 -28.5 62.78 C-27 60 -27 60 -24 57.56 C-21.06 55.05 -20.32 53.68 -19.05 50.16 C-17.02 45.98 -13.91 42.42 -11.06 38.77 C-8.45 35.26 -7 33.28 -7 28.88 C-7 26 -7 26 -5 24 C-4.84 22.85 -4.67 21.69 -4.5 20.5 C-4 17 -4 17 -2 15 C-1.53 12.44 -1.17 9.95 -0.88 7.38 C-0.79 6.67 -0.7 5.96 -0.61 5.23 C-0.4 3.49 -0.2 1.75 0 0 Z " fill="#0040FD" transform="translate(238,620)"/>
<path d="M0 0 C0.33 0 0.66 0 1 0 C1.33 2.64 1.66 5.28 2 8 C2.99 8.33 3.98 8.66 5 9 C6.06 11.14 6.06 11.14 7.01 13.96 C7.35 14.99 7.7 16.02 8.06 17.08 C8.41 18.17 8.76 19.26 9.12 20.38 C9.48 21.42 9.84 22.47 10.21 23.55 C12.24 29.7 13.45 35.29 13.63 41.78 C14.24 45.47 17.14 46.84 20 49 C21.09 51.69 21.51 54.12 22 57 C22.66 57 23.32 57 24 57 C24.33 60.3 24.66 63.6 25 67 C25.99 67 26.98 67 28 67 C28 68.65 28 70.3 28 72 C28.66 72 29.32 72 30 72 C31.17 75.93 30.99 79.5 30.84 83.56 C31.01 86.22 31.79 87.66 33 90 C33.03 91.99 33.06 93.98 33.02 95.97 C32.99 98.8 33.22 101.27 34 104 C35.95 105.44 35.95 105.44 38 106 C38 103.36 38 100.72 38 98 C38.99 98 39.98 98 41 98 C41.33 99.65 41.66 101.3 42 103 C42.66 103 43.32 103 44 103 C44 103.99 44 104.98 44 106 C44.66 106 45.32 106 46 106 C47.35 107.31 48.69 108.65 50 110 C50.99 110.5 50.99 110.5 52 111 C52 111.99 52 112.98 52 114 C52.62 114.29 53.24 114.58 53.88 114.88 C56 116 56 116 58 118 C58.93 121.31 59.11 122.68 58 126 C58.66 126 59.32 126 60 126 C60 126.66 60 127.32 60 128 C60.66 128 61.32 128 62 128 C61.34 126.02 60.68 124.04 60 122 C61.98 122.33 63.96 122.66 66 123 C65.77 122.24 65.55 121.47 65.31 120.69 C65.21 119.8 65.11 118.91 65 118 C66.44 116.19 66.44 116.19 68 115 C68.66 115.33 69.32 115.66 70 116 C70 120.62 70 125.24 70 130 C70.66 130.33 71.32 130.66 72 131 C71.01 131 70.02 131 69 131 C69.09 132.86 69.09 132.86 69.19 134.75 C68.2 143.7 58.73 150.71 52.25 156.25 C38.8 166.44 22.03 173.61 5 174 C4.16 174.03 3.33 174.05 2.47 174.08 C-3.62 174.19 -3.62 174.19 -6 173 C-5.48 167.87 -4.83 162.79 -4.05 157.69 C-1.34 139.73 -0.39 122.07 -0.39 103.9 C-0.39 100.22 -0.36 96.55 -0.34 92.87 C-0.3 85.97 -0.28 79.06 -0.27 72.16 C-0.25 64.27 -0.21 56.39 -0.17 48.5 C-0.09 32.34 -0.04 16.17 0 0 Z " fill="#0090FD" transform="translate(997,617)"/>
<path d="M0 0 C4.07 0.31 7.17 1.61 10.77 3.38 C11.5 3.73 12.22 4.08 12.96 4.44 C29.71 12.73 45.59 22.49 60.47 33.8 C62.26 35.15 64.06 36.48 65.87 37.8 C74.66 44.3 82.55 51.67 90.4 59.26 C90.95 59.79 91.51 60.33 92.08 60.88 C99.06 67.6 105.47 74.59 111.4 82.26 C111.85 82.83 112.31 83.41 112.77 84.01 C120.83 94.28 127.83 104.98 134.4 116.26 C134.8 116.94 135.21 117.63 135.62 118.34 C152.07 146.4 163.42 177.01 169.8 208.9 C169.98 209.8 170.17 210.71 170.36 211.64 C170.59 212.84 170.59 212.84 170.82 214.06 C171.31 216.26 171.31 216.26 172.38 218.09 C180.61 235.67 176.8 264.04 176.7 283.11 C176.68 287.64 176.68 292.16 176.68 296.68 C176.67 305.2 176.64 313.72 176.61 322.25 C176.58 331.96 176.56 341.68 176.55 351.4 C176.52 371.36 176.47 391.31 176.4 411.26 C176.07 410.6 175.74 409.94 175.4 409.26 C174.41 409.26 173.42 409.26 172.4 409.26 C172.29 409.89 172.18 410.52 172.07 411.16 C171.02 416.82 169.57 421.93 167.4 427.26 C166.74 426.93 166.08 426.6 165.4 426.26 C164.26 405.06 164.33 383.88 164.44 362.66 C164.44 361.5 164.44 360.34 164.45 359.15 C164.46 356.95 164.47 354.76 164.49 352.57 C164.5 348.4 164.43 344.48 163.83 340.35 C163.4 337.26 163.4 337.26 163.86 334.98 C164.49 331.79 164.53 328.81 164.54 325.55 C164.55 324.9 164.55 324.24 164.55 323.57 C164.56 321.41 164.57 319.25 164.57 317.09 C164.57 315.57 164.57 314.05 164.58 312.53 C164.58 309.34 164.58 306.15 164.58 302.96 C164.58 299.72 164.59 296.49 164.6 293.25 C164.86 270.46 164.86 270.46 162.83 247.8 C162.17 242.36 162.35 236.99 162.52 231.52 C162.4 228.36 161.98 226.91 160.4 224.26 C160.4 223.6 160.4 222.94 160.4 222.26 C161.06 222.26 161.72 222.26 162.4 222.26 C161.97 220.69 161.97 220.69 161.52 219.08 C161.15 217.7 160.77 216.32 160.4 214.95 C160.21 214.26 160.02 213.56 159.82 212.85 C159.02 209.9 158.4 207.33 158.4 204.26 C157.74 204.26 157.08 204.26 156.4 204.26 C154.09 200.56 153.91 196.74 153.52 192.51 C152.86 186.23 151.49 181.74 148.4 176.26 C148.18 174.65 148.18 174.65 147.96 173.01 C147.11 167.36 144.66 162.47 142.4 157.26 C141.35 154.65 140.32 152.03 139.29 149.41 C138.43 147.24 138.43 147.24 137.29 145.16 C136.4 143.26 136.4 143.26 136.4 140.26 C135.74 140.26 135.08 140.26 134.4 140.26 C133.76 138.95 133.76 138.95 133.11 137.62 C129.58 130.41 125.86 123.45 121.68 116.59 C120.4 114.26 120.4 114.26 120.4 112.26 C119.74 112.26 119.08 112.26 118.4 112.26 C114.52 105.63 114.52 105.63 113.4 102.26 C112.74 102.26 112.08 102.26 111.4 102.26 C108.67 100 107.18 97.29 105.4 94.26 C102.38 89.5 99.48 85.18 95.4 81.26 C95.4 80.6 95.4 79.94 95.4 79.26 C93.91 78.76 93.91 78.76 92.4 78.26 C92.4 77.6 92.4 76.94 92.4 76.26 C91.83 76.02 91.25 75.79 90.66 75.55 C87.86 73.95 86.24 72.03 84.15 69.57 C80.63 65.53 76.99 62 72.83 58.63 C72.36 58.18 71.89 57.73 71.4 57.26 C71.4 56.6 71.4 55.94 71.4 55.26 C69.91 54.76 69.91 54.76 68.4 54.26 C68.4 53.6 68.4 52.94 68.4 52.26 C66.07 51.05 63.9 50.09 61.4 49.26 C61.4 48.6 61.4 47.94 61.4 47.26 C60.08 47.26 58.76 47.26 57.4 47.26 C57.34 46.64 57.27 46.02 57.21 45.38 C56.57 42.98 56.57 42.98 53.84 42.01 C53.03 41.76 52.23 41.51 51.4 41.26 C51.4 40.6 51.4 39.94 51.4 39.26 C50.67 38.99 49.95 38.73 49.2 38.46 C46.34 37.23 44.12 35.8 41.59 34.01 C28.37 25.06 14.39 16.43 -0.41 10.37 C-2.6 9.26 -2.6 9.26 -4.6 6.26 C-3.9 0.39 -3.9 0.39 0 0 Z " fill="#14FBE4" transform="translate(819.6015625,334.7421875)"/>
<path d="M0 0 C2.74 1.48 5.21 2.99 7.75 4.81 C21.61 13.4 40.13 13.34 55.8 11.22 C58.59 10.55 61.2 9.77 63.88 8.75 C65.06 8.3 65.06 8.3 66.27 7.84 C70.99 5.86 75.42 3.4 79.83 0.8 C85.13 -1.92 91.05 -1.87 96.88 -1.25 C100.07 0.51 101.34 1.86 103.19 4.94 C104.96 12.19 104.16 17.65 100.55 24.2 C89.3 41.26 72.59 51.49 52.88 55.75 C31.6 57.26 12.85 53.74 -4.12 40.31 C-12.35 33.1 -20.62 25.1 -22.64 13.92 C-22.95 8.89 -22.56 5.59 -19.31 1.62 C-13.76 -4.1 -6.64 -3.26 0 0 Z " fill="#01CFFA" transform="translate(579.125,740.25)"/>
<path d="M0 0 C11.02 -0.02 22.05 -0.04 33.07 -0.05 C38.19 -0.06 43.31 -0.06 48.43 -0.08 C53.37 -0.09 58.32 -0.09 63.27 -0.09 C65.15 -0.1 67.03 -0.1 68.91 -0.11 C94.65 -0.18 94.65 -0.18 99 2 C100.81 2.32 102.62 2.61 104.44 2.88 C109.54 3.69 114.37 4.9 119.32 6.36 C122.82 7.2 126.22 7.36 129.81 7.4 C132 8 132 8 133.89 10.52 C135.79 13.3 135.79 13.3 138.95 13.46 C140.04 13.43 141.13 13.4 142.25 13.38 C148.45 13.59 151.34 14.99 155.71 19.31 C157 21 157 21 157 23 C158.01 23.17 159.02 23.33 160.06 23.5 C164.53 24.73 166.43 27.6 169.24 31.11 C171.04 33.04 172.24 33.79 174.69 34.69 C178.5 36.2 179.59 37.78 182 41 C183.64 42.04 185.31 43.05 187 44 C187.47 44.5 187.95 44.99 188.44 45.5 C190.08 47.24 190.08 47.24 193.06 48.44 C196.11 50.06 196.9 50.82 198 54 C198.66 54 199.32 54 200 54 C202.12 55.88 202.12 55.88 204 58 C204 58.66 204 59.32 204 60 C204.66 60 205.32 60 206 60 C207.25 61.48 208.49 62.96 209.69 64.48 C211.04 66.16 211.04 66.16 213.31 67.69 C213.87 68.12 214.43 68.55 215 69 C215 69.99 215 70.98 215 72 C215.66 72 216.32 72 217 72 C217 72.66 217 73.32 217 74 C217.66 74 218.32 74 219 74 C219.31 74.74 219.63 75.47 219.95 76.23 C222.22 81.4 224.45 85.59 228 90 C228.71 92.32 229.38 94.65 230 97 C230.66 97.66 231.32 98.32 232 99 C232.67 100.67 233.33 102.33 234 104 C234.66 104.66 235.32 105.32 236 106 C236.28 108.61 236.47 111.13 236.56 113.75 C236.77 118.58 237.09 123.23 238 128 C238.66 128 239.32 128 240 128 C240.29 129.41 240.29 129.41 240.59 130.85 C240.85 132.1 241.11 133.34 241.38 134.62 C241.63 135.85 241.89 137.08 242.15 138.35 C242.89 141.88 242.89 141.88 244 144.69 C245.54 149.8 245.97 155.02 246.56 160.31 C246.81 162.5 247.06 164.68 247.32 166.86 C247.42 167.83 247.53 168.79 247.64 169.78 C247.77 171.97 247.77 171.97 249 173 C249.09 174.49 249.11 175.98 249.1 177.47 C249.09 178.37 249.09 179.27 249.09 180.2 C249.08 181.14 249.07 182.09 249.06 183.06 C249.06 184.01 249.05 184.96 249.05 185.94 C249.04 188.29 249.02 190.65 249 193 C246.13 193.62 246.13 193.62 243 194 C240.62 191.62 240.71 190.95 240.51 187.7 C240.44 186.81 240.38 185.93 240.32 185.02 C240.25 184.06 240.19 183.11 240.12 182.12 C239.26 171.19 237.46 160.68 235 150 C234.83 149.24 234.65 148.49 234.48 147.71 C226.89 115.05 210.18 86.05 187 62 C186.35 61.3 185.7 60.59 185.03 59.87 C169.52 43.57 149.41 31.98 129 23 C127.78 22.41 127.78 22.41 126.54 21.8 C105.34 11.52 81.21 9.92 58.08 9.68 C56.37 9.66 54.66 9.64 52.95 9.62 C48.48 9.57 44.02 9.52 39.55 9.47 C34.98 9.42 30.41 9.36 25.83 9.31 C16.89 9.2 7.94 9.1 -1 9 C-1 5.89 -0.54 3.06 0 0 Z " fill="#56F9F9" transform="translate(653,442)"/>
<path d="M0 0 C5.94 0.99 5.94 0.99 12 2 C15.62 2.18 19.14 2.28 22.75 2.25 C24.07 2.26 24.07 2.26 25.42 2.27 C30.97 2.26 35.65 1.46 41 0 C42.32 0 43.64 0 45 0 C45.14 5.64 45.29 11.28 45.43 16.93 C45.48 18.84 45.52 20.76 45.57 22.68 C45.64 25.44 45.71 28.2 45.78 30.96 C45.8 31.82 45.82 32.68 45.85 33.56 C45.87 34.36 45.89 35.16 45.91 35.99 C45.93 36.69 45.94 37.4 45.96 38.12 C46.01 40.41 46 42.71 46 45 C30.49 45 14.98 45 -1 45 C-0.67 30.15 -0.34 15.3 0 0 Z " fill="#0197FC" transform="translate(603,266)"/>
<path d="M0 0 C6.93 5.53 11.53 12.66 12.69 21.46 C12.78 24.02 12.82 26.56 12.8 29.12 C12.81 29.86 12.81 30.6 12.81 31.37 C12.8 33.8 12.8 36.24 12.79 38.67 C12.79 40.37 12.79 42.06 12.78 43.76 C12.78 48.21 12.77 52.66 12.76 57.1 C12.75 61.65 12.75 66.19 12.74 70.74 C12.73 79.65 12.71 88.55 12.69 97.46 C12.36 97.46 12.03 97.46 11.69 97.46 C11.36 89.54 11.03 81.62 10.69 73.46 C8.71 73.96 8.71 73.96 6.69 74.46 C1.56 50.85 1.56 50.85 3.69 44.46 C2.7 44.13 1.71 43.8 0.69 43.46 C-1.74 39.82 -1.39 38.53 -0.93 34.27 C-0.82 33.19 -0.71 32.1 -0.6 30.98 C-0.5 30.15 -0.41 29.32 -0.31 28.46 C-1.3 27.97 -1.3 27.97 -2.31 27.46 C-2.1 26.35 -1.9 25.23 -1.68 24.09 C-1.5 22.29 -1.5 22.29 -1.31 20.46 C-3.29 18.02 -3.29 18.02 -7.18 18.34 C-9.34 18.14 -9.34 18.14 -11.31 17.46 C-12.79 15.47 -13.64 13.58 -14.52 11.27 C-15.16 9.27 -15.16 9.27 -17.31 8.46 C-17.31 7.47 -17.31 6.48 -17.31 5.46 C-20.07 5.98 -22.63 6.57 -25.31 7.46 C-25.31 6.8 -25.31 6.14 -25.31 5.46 C-26.63 5.46 -27.95 5.46 -29.31 5.46 C-29.64 6.45 -29.97 7.44 -30.31 8.46 C-31.39 8.49 -31.39 8.49 -32.5 8.52 C-36.08 9.72 -37.15 11.38 -39.29 14.38 C-40.58 17.03 -40.83 19.56 -41.31 22.46 C-42.12 24.54 -42.98 26.6 -43.87 28.65 C-46.33 34.79 -46.9 39.91 -46.31 46.46 C-46.97 46.46 -47.63 46.46 -48.31 46.46 C-48.64 47.45 -48.97 48.44 -49.31 49.46 C-50.63 49.46 -51.95 49.46 -53.31 49.46 C-53.56 45.23 -53.78 41 -54 36.77 C-54.07 35.58 -54.14 34.38 -54.22 33.14 C-54.27 31.99 -54.33 30.83 -54.38 29.64 C-54.44 28.57 -54.5 27.51 -54.56 26.42 C-54.27 23 -53.2 21.28 -51.31 18.46 C-50.64 15.75 -50.64 15.75 -50.31 12.96 C-49.42 7.72 -48.71 4.36 -44.39 0.94 C-30.39 -8.95 -14.61 -9.74 0 0 Z " fill="#0FF8FC" transform="translate(521.30859375,590.5390625)"/>
<path d="M0 0 C0.66 0.33 1.32 0.66 2 1 C2.38 2.81 2.38 2.81 2.56 5 C2.63 7.79 2.63 7.79 4 10 C4.07 11.52 4.08 13.04 4.06 14.56 C4.05 15.39 4.04 16.22 4.04 17.07 C4.02 17.7 4.01 18.34 4 19 C4.66 19 5.32 19 6 19 C6.33 18.01 6.66 17.02 7 16 C7 17.65 7 19.3 7 21 C7.66 21 8.32 21 9 21 C10.13 29.6 10.14 38.17 10.11 46.82 C10.11 48.4 10.11 49.98 10.11 51.56 C10.11 55.81 10.11 60.07 10.1 64.32 C10.1 68.78 10.09 73.24 10.09 77.7 C10.09 86.12 10.08 94.55 10.07 102.98 C10.06 112.58 10.06 122.18 10.05 131.78 C10.04 151.52 10.02 171.26 10 191 C9.67 191 9.34 191 9 191 C8.5 186.05 8.5 186.05 8 181 C5.93 185.62 4.34 190.1 3 195 C2.5 195.99 2.5 195.99 2 197 C1.34 197 0.68 197 0 197 C-0 196.02 -0.01 195.05 -0.01 194.04 C-0.12 170.33 -0.22 146.61 -0.34 122.89 C-0.39 111.42 -0.45 99.95 -0.5 88.48 C-0.54 78.48 -0.59 68.49 -0.64 58.49 C-0.66 53.2 -0.69 47.9 -0.71 42.61 C-0.73 37.63 -0.75 32.65 -0.78 27.67 C-0.79 25.84 -0.8 24.01 -0.8 22.18 C-0.81 19.68 -0.83 17.19 -0.84 14.69 C-0.84 13.97 -0.84 13.24 -0.84 12.49 C-0.87 9.78 -0.91 7.33 -1.63 4.71 C-1.82 3.86 -1.82 3.86 -2 3 C-1.34 2.01 -0.68 1.02 0 0 Z " fill="#3DFCF5" transform="translate(986,551)"/>
<path d="M0 0 C8.57 4.87 16.06 12.8 19.26 22.26 C20.26 27.22 21.04 33.92 18.72 38.55 C18.5 40.42 18.31 42.29 18.16 44.17 C18.03 45.68 18.03 45.68 17.91 47.21 C17.85 47.98 17.79 48.75 17.72 49.55 C17.06 49.55 16.4 49.55 15.72 49.55 C14.73 52.85 13.74 56.15 12.72 59.55 C12.39 59.55 12.06 59.55 11.72 59.55 C11.54 58.26 11.54 58.26 11.36 56.95 C10.13 48.11 10.13 48.11 7.72 39.55 C6.73 39.05 6.73 39.05 5.72 38.55 C5.46 36.04 5.3 33.62 5.22 31.11 C5.33 25.84 5.33 25.84 2.72 21.55 C1.61 21.24 0.5 20.93 -0.65 20.61 C-3.95 19.64 -5.83 18.9 -8.28 16.55 C-8.28 15.89 -8.28 15.23 -8.28 14.55 C-8.94 14.55 -9.6 14.55 -10.28 14.55 C-11.9 12.05 -11.9 12.05 -13.28 9.55 C-17.44 10.01 -19.51 10.41 -22.28 13.55 C-25.5 15.52 -28.29 15.9 -32.03 16.17 C-33.01 16.25 -34 16.32 -35.01 16.4 C-35.76 16.45 -36.51 16.5 -37.28 16.55 C-37.28 19.85 -37.28 23.15 -37.28 26.55 C-37.94 26.55 -38.6 26.55 -39.28 26.55 C-39.61 28.53 -39.94 30.51 -40.28 32.55 C-39.95 32.55 -39.62 32.55 -39.28 32.55 C-39.28 36.51 -39.28 40.47 -39.28 44.55 C-39.94 44.55 -40.6 44.55 -41.28 44.55 C-41.41 45.75 -41.54 46.95 -41.68 48.2 C-41.86 49.77 -42.04 51.35 -42.21 52.92 C-42.3 53.72 -42.39 54.51 -42.48 55.33 C-43.16 61.32 -43.16 61.32 -44.28 63.55 C-45.27 63.22 -46.26 62.89 -47.28 62.55 C-48.28 59.54 -48.57 57.07 -48.81 53.92 C-48.9 52.8 -48.99 51.68 -49.08 50.53 C-49.16 49.36 -49.25 48.19 -49.34 46.98 C-49.43 45.84 -49.52 44.7 -49.62 43.52 C-51.5 18.69 -51.5 18.69 -43.97 9.43 C-32.56 -3.27 -15.69 -7.36 0 0 Z " fill="#2FFAFA" transform="translate(756.27734375,587.453125)"/>
<path d="M0 0 C19.99 0.09 39.32 10.3 53.29 24.13 C62.02 33.37 67.77 43.54 73 55 C73.4 55.87 73.8 56.74 74.21 57.64 C75.11 60.33 75.2 62.49 75.12 65.31 C75.11 66.2 75.09 67.08 75.07 67.99 C75.05 68.65 75.02 69.32 75 70 C74.01 70.5 74.01 70.5 73 71 C72.34 74.03 72.34 74.03 72 77 C71.34 76.67 70.68 76.34 70 76 C69.67 73.67 69.33 71.33 69 69 C68.34 68.67 67.68 68.34 67 68 C66.35 66.4 65.78 64.77 65.25 63.12 C63.41 57.8 60.99 53.08 58.17 48.21 C57 46 57 46 57 44 C56.34 44 55.68 44 55 44 C54.72 43.36 54.44 42.72 54.15 42.06 C50.98 35.21 47.41 29.1 40.38 25.75 C39.59 25.5 38.81 25.25 38 25 C35.5 23.5 35.5 23.5 33 22 C32.09 21.69 31.18 21.38 30.25 21.06 C28 20 28 20 27.19 17.88 C27.13 17.26 27.06 16.64 27 16 C26.48 15.88 25.97 15.75 25.44 15.62 C23.58 15.15 21.74 14.63 19.91 14.09 C15.66 12.88 11.37 11.87 7.06 10.88 C6.28 10.69 5.5 10.51 4.7 10.32 C2.8 9.88 0.9 9.44 -1 9 C-1 7.35 -1 5.7 -1 4 C-1.66 3.67 -2.32 3.34 -3 3 C-1.68 3 -0.36 3 1 3 C0.67 2.01 0.34 1.02 0 0 Z " fill="#29FBFC" transform="translate(1002,554)"/>
<path d="M0 0 C5.77 4.6 10.6 10.9 12.34 18.16 C12.81 22.52 12.91 26.83 12.94 31.21 C12.96 32.07 12.98 32.94 13 33.82 C13.01 35.06 13.01 35.06 13.02 36.32 C13.03 37.44 13.03 37.44 13.05 38.58 C12.93 39.2 12.81 39.82 12.69 40.46 C11.7 41.12 10.71 41.78 9.69 42.46 C8.47 46.02 8.47 46.02 7.69 49.46 C5.12 46.89 5.32 45.6 5.06 42.01 C4.97 40.91 4.89 39.82 4.8 38.69 C4.73 37.54 4.65 36.39 4.57 35.21 C4.48 34.08 4.39 32.94 4.3 31.78 C3.93 26.66 3.65 21.6 3.69 16.46 C0.78 14.83 -1.52 14.25 -4.81 13.9 C-7.9 13.29 -8.96 12.96 -10.78 10.33 C-11.77 8.06 -12.61 5.83 -13.31 3.46 C-26.43 2.47 -26.43 2.47 -38.22 7.53 C-41.23 10.31 -43.68 13.35 -46.03 16.7 C-46.45 17.28 -46.87 17.86 -47.31 18.46 C-47.64 18.46 -47.97 18.46 -48.31 18.46 C-49.72 8.77 -49.72 8.77 -48.43 4.65 C-35.1 -9.08 -15.86 -10.58 0 0 Z " fill="#46F8F8" transform="translate(521.30859375,590.5390625)"/>
<path d="M0 0 C2.4 3.6 2.31 6.24 2.32 10.4 C2.34 11.53 2.34 11.53 2.35 12.68 C2.38 15.17 2.4 17.66 2.41 20.15 C2.42 21.89 2.43 23.63 2.44 25.37 C2.46 29.02 2.47 32.67 2.48 36.32 C2.49 40.97 2.54 45.62 2.6 50.27 C2.63 53.86 2.64 57.46 2.65 61.06 C2.65 62.77 2.67 64.48 2.7 66.19 C2.89 79.79 0.54 90.07 -9.16 100.32 C-17.41 107.84 -26.74 110.65 -37.79 110.34 C-47.42 109.31 -55.38 104.12 -61.79 97.02 C-65.55 92.23 -68.63 87.35 -69.31 81.19 C-69 79 -69 79 -67 77 C-65.68 77 -64.36 77 -63 77 C-62.95 77.64 -62.9 78.28 -62.85 78.93 C-62.78 79.76 -62.7 80.59 -62.62 81.44 C-62.56 82.26 -62.49 83.08 -62.41 83.93 C-62.28 84.62 -62.14 85.3 -62 86 C-61.34 86.33 -60.68 86.66 -60 87 C-59 88 -58 89 -57 90 C-56.01 90.66 -55.02 91.32 -54 92 C-54 92.99 -54 93.98 -54 95 C-53.34 95 -52.68 95 -52 95 C-51.67 96.65 -51.34 98.3 -51 100 C-50.34 100 -49.68 100 -49 100 C-49 100.66 -49 101.32 -49 102 C-47.02 101.65 -47.02 101.65 -45 101 C-44.67 100.34 -44.34 99.68 -44 99 C-41.68 98.59 -39.34 98.26 -37 98 C-34 102.75 -34 102.75 -34 105 C-31.69 104.67 -29.38 104.34 -27 104 C-27 102.35 -27 100.7 -27 99 C-24.03 98.01 -21.06 97.02 -18 96 C-18 96.66 -18 97.32 -18 98 C-16.68 98.33 -15.36 98.66 -14 99 C-14 98.34 -14 97.68 -14 97 C-13.34 97 -12.68 97 -12 97 C-12.33 96.01 -12.66 95.02 -13 94 C-13 88.93 -11.21 84.52 -8.06 80.56 C-5.95 78.96 -4.63 78.26 -2 78 C-1.34 78.33 -0.68 78.66 0 79 C0 52.93 0 26.86 0 0 Z " fill="#04CEF1" transform="translate(533,608)"/>
<path d="M0 0 C4.13 2.35 7.44 5.14 10.73 8.55 C11.27 9.1 11.8 9.64 12.36 10.2 C13.79 11.74 13.79 11.74 15.73 14.55 C15.6 16.68 15.6 16.68 14.73 18.55 C13.7 21.62 13.7 21.62 14.73 24.55 C16.75 25.21 16.75 25.21 18.73 25.55 C18.73 27.86 18.73 30.17 18.73 32.55 C18.07 32.55 17.41 32.55 16.73 32.55 C16.73 33.21 16.73 33.87 16.73 34.55 C16.07 34.55 15.41 34.55 14.73 34.55 C14.07 36.2 13.41 37.85 12.73 39.55 C10.36 35.85 10.53 32.56 10.48 28.24 C10.24 22.69 9.69 18.66 5.55 14.7 C3.52 13.42 1.82 12.92 -0.52 12.43 C-1.76 12.14 -3 11.85 -4.27 11.55 C-5.51 9 -5.51 9 -6.27 6.55 C-8.79 6.47 -11.31 6.41 -13.84 6.37 C-14.54 6.34 -15.24 6.32 -15.97 6.29 C-24.46 6.17 -31.14 9.77 -37.27 15.55 C-39.18 18.11 -40.79 20.74 -42.27 23.55 C-44.27 20.55 -44.27 20.55 -44.27 16.55 C-43.61 16.55 -42.95 16.55 -42.27 16.55 C-42.35 15.97 -42.44 15.39 -42.52 14.8 C-43.02 8.66 -43.02 8.66 -41.07 5.76 C-29.86 -4.45 -13.44 -6.28 0 0 Z " fill="#69F8F8" transform="translate(756.2734375,587.4453125)"/>
<path d="M0 0 C5.49 0 8.34 2.52 12.16 6.09 C14.59 8.62 16.37 10.88 18 14 C17.67 14.99 17.34 15.98 17 17 C10.16 16.51 4.7 14.92 -0.75 10.62 C-2 9 -2 9 -2.11 6.99 C-1.11 1.11 -1.11 1.11 0 0 Z " fill="#61F5F5" transform="translate(513,588)"/>
<path d="M0 0 C0.99 0.66 1.98 1.32 3 2 C3.29 4.54 3.38 6.84 3.34 9.39 C3.34 10.15 3.34 10.91 3.34 11.69 C3.34 14.22 3.32 16.74 3.29 19.26 C3.29 21 3.28 22.75 3.28 24.5 C3.27 29.1 3.24 33.7 3.21 38.3 C3.18 42.99 3.16 47.68 3.15 52.37 C3.11 61.58 3.06 70.79 3 80 C2.67 80 2.34 80 2 80 C1.67 74.06 1.34 68.12 1 62 C0.67 62 0.34 62 0 62 C-0.14 56.58 -0.29 51.16 -0.43 45.73 C-0.48 43.9 -0.52 42.06 -0.57 40.22 C-0.81 31.3 -1.04 22.37 -1.09 13.44 C-1.1 12.28 -1.11 11.13 -1.12 9.94 C-1.02 7.43 -0.74 5.38 0 3 C-0.66 2.67 -1.32 2.34 -2 2 C-1.34 1.34 -0.68 0.68 0 0 Z " fill="#01364C" transform="translate(461,608)"/>
<path d="M0 0 C0.33 0 0.66 0 1 0 C1.02 9.34 1.04 18.67 1.05 28.01 C1.06 32.34 1.06 36.68 1.08 41.01 C1.09 45.19 1.09 49.38 1.09 53.56 C1.1 55.16 1.1 56.75 1.11 58.35 C1.11 60.58 1.11 62.82 1.11 65.05 C1.12 66.32 1.12 67.59 1.12 68.91 C1 72 1 72 0 75 C-0.66 75 -1.32 75 -2 75 C-2.33 72.03 -2.66 69.06 -3 66 C-3.99 66.99 -3.99 66.99 -5 68 C-6.42 65.16 -5.86 63.01 -5.56 59.88 C-5.46 58.78 -5.36 57.68 -5.25 56.55 C-5.17 55.71 -5.09 54.87 -5 54 C-4.01 54 -3.02 54 -2 54 C-0.76 51.51 -0.84 49.78 -0.79 47 C-0.77 45.96 -0.75 44.92 -0.73 43.85 C-0.72 42.72 -0.7 41.59 -0.68 40.43 C-0.66 39.28 -0.64 38.13 -0.62 36.94 C-0.56 33.25 -0.5 29.56 -0.44 25.88 C-0.39 23.38 -0.35 20.88 -0.31 18.39 C-0.2 12.26 -0.1 6.13 0 0 Z " fill="#01C2CE" transform="translate(776,615)"/>
<path d="M0 0 C4.99 1.28 7.58 3.17 11 7 C10 10 10 10 7 12 C3.51 11.65 0.91 9.86 -2 8 C-1.33 5.33 -0.67 2.67 0 0 Z " fill="#A6F9FA" transform="translate(755,588)"/>
<path d="M0 0 C5.75 0.75 5.75 0.75 8 3 C7.62 6.12 7.62 6.12 7 9 C7.74 9.23 8.49 9.45 9.25 9.69 C12.51 11.24 13.93 13.09 16 16 C8.67 12.33 1.33 8.67 -6 5 C-6 4.67 -6 4.34 -6 4 C-4.02 3.67 -2.04 3.34 0 3 C0 2.01 0 1.02 0 0 Z " fill="#1CFDFD" transform="translate(644,151)"/>
<path d="M0 0 C4.4 0.5 6.71 2.09 10 5 C9.69 6.88 9.69 6.88 9 9 C6 11 6 11 3.5 10.81 C0.84 9.95 -0.32 9.21 -2 7 C-2 6.34 -2 5.68 -2 5 C-1.34 5 -0.68 5 0 5 C0 3.35 0 1.7 0 0 Z " fill="#A5F7F8" transform="translate(515,589)"/>
<path d="M0 0 C0.99 0.66 1.98 1.32 3 2 C1.74 5.88 0.58 7.94 -3 10 C-3.99 10 -4.98 10 -6 10 C-6 9.34 -6 8.68 -6 8 C-6.66 7.67 -7.32 7.34 -8 7 C-8.33 7.33 -8.66 7.66 -9 8 C-12.86 9.44 -16.74 8.89 -20.75 8.56 C-21.45 8.51 -22.14 8.46 -22.86 8.4 C-24.58 8.28 -26.29 8.14 -28 8 C-28 7.67 -28 7.34 -28 7 C-26.48 7 -26.48 7 -24.92 6.99 C-15.3 6.78 -8.36 5.18 0 0 Z " fill="#003550" transform="translate(762,710)"/>
<path d="M0 0 C0.33 0.66 0.66 1.32 1 2 C3.02 2.65 3.02 2.65 5 3 C5 3.66 5 4.32 5 5 C5.69 5.04 6.37 5.07 7.08 5.11 C7.98 5.18 8.88 5.24 9.81 5.31 C11.15 5.4 11.15 5.4 12.52 5.49 C15.39 6.08 16.03 6.94 18 9 C20.04 9.57 20.04 9.57 22.19 9.69 C24.07 9.84 24.07 9.84 26 10 C26 10.33 26 10.66 26 11 C15.99 11.56 8.43 10.62 0 5 C-0.19 2.38 -0.19 2.38 0 0 Z " fill="#02C0EC" transform="translate(479,707)"/>
<path d="M0 0 C-3.09 1.76 -4.23 2 -8 2 C-8 2.66 -8 3.32 -8 4 C-13.42 6.14 -13.42 6.14 -16.31 5.44 C-19.97 4.84 -22.43 6.05 -25.82 7.41 C-28.29 8.08 -29.61 7.82 -32 7 C-4.94 -1.69 -4.94 -1.69 0 0 Z " fill="#004296" transform="translate(495,455)"/>
<path d="M0 0 C0.66 0.66 1.32 1.32 2 2 C1.67 2.99 1.34 3.98 1 5 C-14.51 5 -30.02 5 -46 5 C-46 4.67 -46 4.34 -46 4 C-31.48 4 -16.96 4 -2 4 C-1.34 2.68 -0.68 1.36 0 0 Z " fill="#0ACCFD" transform="translate(648,306)"/>
<path d="M0 0 C4.31 5.24 4.11 9.43 4 16 C3.67 16 3.34 16 3 16 C3 13.69 3 11.38 3 9 C1.35 8.67 -0.3 8.34 -2 8 C-2.33 6.02 -2.66 4.04 -3 2 C-2.01 1.34 -1.02 0.68 0 0 Z " fill="#40EBEE" transform="translate(772,604)"/>
<path d="M0 0 C2.34 3.66 2.07 6.74 2 11 C2.31 12.33 2.31 12.33 2.62 13.69 C3.08 16.48 2.48 17.64 1 20 C0.34 19.67 -0.32 19.34 -1 19 C-1.03 16.02 -1.05 13.04 -1.06 10.06 C-1.07 9.21 -1.08 8.36 -1.09 7.49 C-1.09 6.68 -1.09 5.87 -1.1 5.04 C-1.1 4.29 -1.11 3.54 -1.11 2.77 C-1 1 -1 1 0 0 Z " fill="#08FCEB" transform="translate(980,592)"/>
<path d="M0 0 C7.59 0.33 15.18 0.66 23 1 C23 1.33 23 1.66 23 2 C18.38 2.33 13.76 2.66 9 3 C9 3.33 9 3.66 9 4 C5.7 3.67 2.4 3.34 -1 3 C-0.67 2.01 -0.34 1.02 0 0 Z " fill="#00B2BC" transform="translate(604,752)"/>
<path d="M0 0 C6.18 0.33 11.12 3.41 16 7 C17.8 9.2 17.8 9.2 19 11 C15.03 9.06 11.15 6.96 7.25 4.88 C6.55 4.5 5.86 4.13 5.14 3.75 C3.42 2.83 1.71 1.92 0 1 C0 0.67 0 0.34 0 0 Z " fill="#AFFDFD" transform="translate(641,156)"/>
<path d="M0 0 C1.89 0.03 1.89 0.03 3.81 0.06 C3.48 1.05 3.15 2.04 2.81 3.06 C2.15 3.06 1.49 3.06 0.81 3.06 C0.81 4.05 0.81 5.04 0.81 6.06 C-0.84 5.73 -2.49 5.4 -4.19 5.06 C-4.19 4.07 -4.19 3.08 -4.19 2.06 C-5.51 2.39 -6.83 2.72 -8.19 3.06 C-6.46 -0.4 -3.47 -0.06 0 0 Z " fill="#01B4D0" transform="translate(570.1875,737.9375)"/>
<path d="M0 0 C0.33 0 0.66 0 1 0 C1 6.27 1 12.54 1 19 C0.01 18.67 -0.98 18.34 -2 18 C-2.33 18.99 -2.66 19.98 -3 21 C-2 14 -1 7 0 0 Z " fill="#02CCDA" transform="translate(892,722)"/>
<path d="M0 0 C2.87 0.57 3.86 0.86 6 3 C8.66 3.57 11.29 3.74 14 4 C14 4.33 14 4.66 14 5 C11.88 5.03 9.75 5.05 7.62 5.06 C6.44 5.07 5.26 5.09 4.04 5.1 C1 5 1 5 -1 4 C-0.67 2.68 -0.34 1.36 0 0 Z " fill="#00A1C9" transform="translate(491,713)"/>
<path d="M0 0 C1.12 3.36 0.83 4.62 0.06 8 C-0.57 10.81 -1 13.11 -1 16 C-1.66 16 -2.32 16 -3 16 C-2.89 13.9 -2.76 11.79 -2.62 9.69 C-2.56 8.52 -2.49 7.34 -2.41 6.14 C-2 3 -2 3 0 0 Z " fill="#00F4FD" transform="translate(980,780)"/>
<path d="M0 0 C0 0.99 0 1.98 0 3 C-2.64 2.67 -5.28 2.34 -8 2 C-7.67 2.99 -7.34 3.98 -7 5 C-7.66 5 -8.32 5 -9 5 C-9 4.34 -9 3.68 -9 3 C-9.66 2.67 -10.32 2.34 -11 2 C-9.73 1.47 -8.46 0.95 -7.19 0.44 C-6.48 0.15 -5.77 -0.14 -5.04 -0.44 C-3 -1 -3 -1 0 0 Z " fill="#03DBDC" transform="translate(652,748)"/>
<path d="M0 0 C2.88 -0.12 2.88 -0.12 6 0 C8.16 2.16 9.48 4.37 11 7 C6.7 7 5.13 4.8 2 2 C1.34 1.34 0.68 0.68 0 0 Z " fill="#10314C" transform="translate(757,588)"/>
<path d="M0 0 C2.31 0.33 4.62 0.66 7 1 C6.01 2.49 6.01 2.49 5 4 C3.74 3.88 2.48 3.75 1.19 3.62 C0.13 3.52 0.13 3.52 -0.96 3.41 C-3 3 -3 3 -6 1 C-4.02 1 -2.04 1 0 1 C0 0.67 0 0.34 0 0 Z " fill="#018ED1" transform="translate(603,791)"/>
<path d="M0 0 C0.95 2.17 1.14 3.56 0.4 5.82 C-0.36 7.57 -1.18 9.29 -2 11 C-2.66 10.67 -3.32 10.34 -4 10 C-3 6.21 -2.19 3.28 0 0 Z " fill="#04D4DB" transform="translate(469,600)"/>
<path d="M0 0 C0.33 0 0.66 0 1 0 C1 2.31 1 4.62 1 7 C0.34 7 -0.32 7 -1 7 C-1 7.66 -1 8.32 -1 9 C-1.99 9.33 -2.98 9.66 -4 10 C-2.89 6.51 -1.74 3.23 0 0 Z " fill="#01D2E3" transform="translate(875,781)"/>
<path d="M0 0 C1.43 2.35 2.09 3.48 1.62 6.25 C1.42 6.83 1.21 7.4 1 8 C0.34 7.67 -0.32 7.34 -1 7 C-1.62 3.94 -1.62 3.94 -2 1 C-1.34 0.67 -0.68 0.34 0 0 Z " fill="#0B4763" transform="translate(884,576)"/>
<path d="M0 0 C2.4 2.4 2.34 3.33 2.62 6.62 C2.7 7.44 2.77 8.26 2.85 9.1 C2.9 9.73 2.95 10.35 3 11 C1.32 7.74 0.11 4.5 -1 1 C-0.67 0.67 -0.34 0.34 0 0 Z " fill="#59DBE2" transform="translate(883,569)"/>
<path d="M0 0 C0.33 0.99 0.66 1.98 1 3 C0.01 3.99 -0.98 4.98 -2 6 C-4 5 -4 5 -5 3 C-3.35 2.01 -1.7 1.02 0 0 Z " fill="#003055" transform="translate(762,710)"/>
<path d="M0 0 C0.33 0 0.66 0 1 0 C1 1.65 1 3.3 1 5 C-1.31 5 -3.62 5 -6 5 C-5.2 4.36 -4.39 3.72 -3.56 3.06 C-1.72 1.59 -1.72 1.59 0 0 Z " fill="#65F3FA" transform="translate(601,307)"/>
<path d="" fill="#E9FAFE" transform="translate(0,0)"/>
</svg>
